<?xml version="1.0" standalone="no"?>
<!DOCTYPE svg PUBLIC "-//W3C//DTD SVG 20010904//EN"
 "http://www.w3.org/TR/2001/REC-SVG-20010904/DTD/svg10.dtd">
<svg version="1.0" xmlns="http://www.w3.org/2000/svg"
 width="778.000000pt" height="778.000000pt" viewBox="0 0 778.000000 778.000000"
 preserveAspectRatio="xMidYMid meet">
<metadata>
Created by potrace 1.11, written by Peter Selinger 2001-2013
</metadata>
<g transform="translate(0.000000,778.000000) scale(0.100000,-0.100000)"
fill="#000000" stroke="none">
<path d="M2126 6758 c-12 -21 -143 -246 -188 -325 -10 -18 -26 -48 -37 -65
-10 -18 -34 -60 -53 -93 -160 -277 -311 -539 -397 -687 l-103 -177 21 -30 c12
-16 21 -31 21 -34 0 -2 45 -82 100 -177 55 -94 100 -173 100 -175 0 -2 38 -68
90 -155 9 -16 121 -210 323 -560 72 -124 132 -227 134 -230 3 -3 359 -5 793
-5 l789 0 54 95 c30 52 103 178 161 278 58 101 106 188 106 193 0 5 5 9 10 9
6 0 10 4 10 8 0 5 64 119 141 253 78 134 151 260 161 279 11 19 48 82 81 140
33 58 60 109 60 115 0 5 -20 44 -45 85 -24 41 -47 82 -51 90 -4 8 -16 29 -26
45 -24 39 -151 257 -183 315 -14 25 -58 101 -98 170 -40 68 -81 140 -92 158
-10 18 -59 104 -109 190 -50 86 -111 192 -136 235 l-45 77 -789 0 -789 0 -14
-22z"/>
<path d="M4784 5103 c-43 -76 -80 -143 -82 -150 -2 -7 -8 -13 -13 -13 -5 0 -9
-4 -9 -9 0 -6 -106 -193 -236 -418 -130 -224 -248 -428 -262 -453 -14 -25 -44
-77 -67 -116 l-42 -71 32 -55 c18 -30 43 -74 57 -99 14 -24 67 -116 118 -204
51 -88 134 -232 185 -320 50 -88 104 -179 118 -202 15 -24 27 -44 27 -46 0 -2
46 -82 101 -178 56 -96 111 -190 121 -209 11 -19 24 -40 28 -45 8 -10 1573
-15 1583 -5 5 6 239 407 250 430 4 8 13 24 20 35 7 11 25 43 41 70 16 28 58
98 93 158 35 59 63 109 63 111 0 2 33 60 73 127 40 68 90 156 111 194 21 39
45 77 52 86 8 8 14 18 14 22 0 3 16 33 36 67 l36 61 -53 92 c-29 51 -101 175
-160 277 -58 102 -116 201 -127 220 -11 19 -55 96 -98 171 -44 75 -140 242
-214 372 l-135 236 -791 1 -790 0 -80 -137z"/>
<path d="M2087 3628 c-84 -143 -197 -339 -222 -383 -13 -22 -87 -150 -165
-285 -79 -135 -155 -266 -169 -292 -14 -26 -61 -108 -104 -182 l-78 -136 18
-28 c11 -15 25 -38 31 -52 7 -14 18 -34 25 -45 7 -11 27 -47 46 -80 19 -33 80
-139 136 -235 123 -212 401 -692 427 -737 10 -18 27 -50 39 -70 26 -47 61
-106 67 -113 2 -3 359 -5 792 -5 l789 0 66 115 c36 63 84 147 106 185 23 39
51 88 64 110 12 22 54 94 92 160 69 118 316 546 355 615 11 19 38 66 61 105
22 38 40 74 40 80 0 5 -21 45 -46 88 -26 43 -47 80 -47 82 0 2 -17 32 -38 66
-22 35 -50 84 -64 109 -24 43 -469 812 -522 901 -14 24 -35 61 -46 82 l-20 37
-790 0 -789 0 -54 -92z"/>
</g>
</svg>
